<mxfile modified="2021-09-09T12:31:57.418Z" host="app.diagrams.net" agent="5.0 (Windows NT 10.0; Win64; x64) AppleWebKit/537.36 (KHTML, like Gecko) Chrome/91.0.4472.77 Safari/537.36" etag="ieWbj6uoamStZeTa9fSQ" version="15.1.2" type="github">
  <diagram id="Ht1M8jgEwFfnCIfOTk4-" name="Page-1">
    <mxGraphModel dx="782" dy="1273" grid="1" gridSize="10" guides="1" tooltips="1" connect="1" arrows="1" fold="1" page="1" pageScale="1" pageWidth="1169" pageHeight="827" math="0" shadow="0">
      <root>
        <mxCell id="0" />
        <mxCell id="1" parent="0" />
        <mxCell id="lHmO488rwNV5HsiQTs_L-4" value="" style="edgeStyle=orthogonalEdgeStyle;rounded=0;orthogonalLoop=1;jettySize=auto;html=1;" edge="1" parent="1" source="UEzPUAAOIrF-is8g5C7q-158" target="lHmO488rwNV5HsiQTs_L-1">
          <mxGeometry relative="1" as="geometry" />
        </mxCell>
        <mxCell id="UEzPUAAOIrF-is8g5C7q-158" value="Amazon S3&lt;br&gt;Bucket&lt;br&gt;" style="outlineConnect=0;fontColor=#232F3E;gradientColor=none;fillColor=#277116;strokeColor=none;dashed=0;verticalLabelPosition=bottom;verticalAlign=top;align=center;html=1;fontSize=12;fontStyle=0;aspect=fixed;pointerEvents=1;shape=mxgraph.aws4.bucket_with_objects;labelBackgroundColor=#ffffff;" parent="1" vertex="1">
          <mxGeometry x="80" y="-730" width="75" height="78" as="geometry" />
        </mxCell>
        <mxCell id="lHmO488rwNV5HsiQTs_L-6" style="edgeStyle=orthogonalEdgeStyle;rounded=0;orthogonalLoop=1;jettySize=auto;html=1;" edge="1" parent="1" source="lHmO488rwNV5HsiQTs_L-1" target="lHmO488rwNV5HsiQTs_L-5">
          <mxGeometry relative="1" as="geometry" />
        </mxCell>
        <mxCell id="lHmO488rwNV5HsiQTs_L-1" value="Amazon&lt;br&gt;Redshift" style="sketch=0;outlineConnect=0;fontColor=#232F3E;gradientColor=none;fillColor=#A166FF;strokeColor=none;dashed=0;verticalLabelPosition=bottom;verticalAlign=top;align=center;html=1;fontSize=12;fontStyle=0;aspect=fixed;pointerEvents=1;shape=mxgraph.aws4.redshift_ml;" vertex="1" parent="1">
          <mxGeometry x="221.5" y="-730" width="78" height="78" as="geometry" />
        </mxCell>
        <mxCell id="lHmO488rwNV5HsiQTs_L-7" value="即将禁止" style="edgeStyle=orthogonalEdgeStyle;rounded=0;orthogonalLoop=1;jettySize=auto;html=1;dashed=1;dashPattern=1 2;" edge="1" parent="1" source="lHmO488rwNV5HsiQTs_L-2" target="lHmO488rwNV5HsiQTs_L-5">
          <mxGeometry relative="1" as="geometry" />
        </mxCell>
        <mxCell id="lHmO488rwNV5HsiQTs_L-2" value="Amazon&lt;br&gt;RDS" style="sketch=0;points=[[0,0,0],[0.25,0,0],[0.5,0,0],[0.75,0,0],[1,0,0],[0,1,0],[0.25,1,0],[0.5,1,0],[0.75,1,0],[1,1,0],[0,0.25,0],[0,0.5,0],[0,0.75,0],[1,0.25,0],[1,0.5,0],[1,0.75,0]];outlineConnect=0;fontColor=#232F3E;gradientColor=#4D72F3;gradientDirection=north;fillColor=#3334B9;strokeColor=#ffffff;dashed=0;verticalLabelPosition=bottom;verticalAlign=top;align=center;html=1;fontSize=12;fontStyle=0;aspect=fixed;shape=mxgraph.aws4.resourceIcon;resIcon=mxgraph.aws4.rds;" vertex="1" parent="1">
          <mxGeometry x="221.5" y="-595" width="78" height="78" as="geometry" />
        </mxCell>
        <mxCell id="lHmO488rwNV5HsiQTs_L-9" value="" style="edgeStyle=orthogonalEdgeStyle;rounded=0;orthogonalLoop=1;jettySize=auto;html=1;" edge="1" parent="1" source="lHmO488rwNV5HsiQTs_L-5" target="lHmO488rwNV5HsiQTs_L-8">
          <mxGeometry relative="1" as="geometry" />
        </mxCell>
        <mxCell id="lHmO488rwNV5HsiQTs_L-5" value="数据查询" style="sketch=0;points=[[0,0,0],[0.25,0,0],[0.5,0,0],[0.75,0,0],[1,0,0],[0,1,0],[0.25,1,0],[0.5,1,0],[0.75,1,0],[1,1,0],[0,0.25,0],[0,0.5,0],[0,0.75,0],[1,0.25,0],[1,0.5,0],[1,0.75,0]];outlineConnect=0;fontColor=#232F3E;gradientColor=#945DF2;gradientDirection=north;fillColor=#5A30B5;strokeColor=#ffffff;dashed=0;verticalLabelPosition=bottom;verticalAlign=top;align=center;html=1;fontSize=12;fontStyle=0;aspect=fixed;shape=mxgraph.aws4.resourceIcon;resIcon=mxgraph.aws4.sql_workbench;" vertex="1" parent="1">
          <mxGeometry x="411.5" y="-662" width="78" height="78" as="geometry" />
        </mxCell>
        <mxCell id="lHmO488rwNV5HsiQTs_L-13" value="不唯一匹配数据" style="edgeStyle=orthogonalEdgeStyle;rounded=0;orthogonalLoop=1;jettySize=auto;html=1;fontColor=#000000;entryX=0.5;entryY=0;entryDx=0;entryDy=0;" edge="1" parent="1" target="lHmO488rwNV5HsiQTs_L-15">
          <mxGeometry relative="1" as="geometry">
            <mxPoint x="601" y="-560" as="sourcePoint" />
            <mxPoint x="601" y="-400" as="targetPoint" />
          </mxGeometry>
        </mxCell>
        <mxCell id="lHmO488rwNV5HsiQTs_L-8" value="数据预处理" style="sketch=0;points=[[0,0,0],[0.25,0,0],[0.5,0,0],[0.75,0,0],[1,0,0],[0,1,0],[0.25,1,0],[0.5,1,0],[0.75,1,0],[1,1,0],[0,0.25,0],[0,0.5,0],[0,0.75,0],[1,0.25,0],[1,0.5,0],[1,0.75,0]];outlineConnect=0;fontColor=#232F3E;gradientColor=#945DF2;gradientDirection=north;fillColor=#5A30B5;strokeColor=#ffffff;dashed=0;verticalLabelPosition=bottom;verticalAlign=top;align=center;html=1;fontSize=12;fontStyle=0;aspect=fixed;shape=mxgraph.aws4.resourceIcon;resIcon=mxgraph.aws4.glue;" vertex="1" parent="1">
          <mxGeometry x="561.5" y="-662" width="78" height="78" as="geometry" />
        </mxCell>
        <mxCell id="lHmO488rwNV5HsiQTs_L-11" value="将MAC与序列号不唯一匹配的数据进行筛除" style="text;whiteSpace=wrap;html=1;" vertex="1" parent="1">
          <mxGeometry x="540" y="-702" width="130" height="50" as="geometry" />
        </mxCell>
        <mxCell id="lHmO488rwNV5HsiQTs_L-15" value="" style="shape=image;html=1;verticalAlign=top;verticalLabelPosition=bottom;labelBackgroundColor=#ffffff;imageAspect=0;aspect=fixed;image=https://cdn3.iconfinder.com/data/icons/construction-138/200/Warning-128.png;fontColor=#000000;" vertex="1" parent="1">
          <mxGeometry x="571.5" y="-471" width="58" height="58" as="geometry" />
        </mxCell>
        <mxCell id="lHmO488rwNV5HsiQTs_L-17" value="R&amp;amp;D调查" style="html=1;dashed=0;whitespace=wrap;fontColor=#000000;" vertex="1" parent="1">
          <mxGeometry x="830" y="-463" width="100" height="50" as="geometry" />
        </mxCell>
        <mxCell id="lHmO488rwNV5HsiQTs_L-18" value="" style="sketch=0;outlineConnect=0;fontColor=#232F3E;gradientColor=none;fillColor=#A166FF;strokeColor=none;dashed=0;verticalLabelPosition=bottom;verticalAlign=top;align=center;html=1;fontSize=12;fontStyle=0;aspect=fixed;pointerEvents=1;shape=mxgraph.aws4.glue_databrew;" vertex="1" parent="1">
          <mxGeometry x="720" y="-662" width="78" height="78" as="geometry" />
        </mxCell>
      </root>
    </mxGraphModel>
  </diagram>
</mxfile>
